<svg xmlns="http://www.w3.org/2000/svg" viewBox="0 0 60 40" preserveAspectRatio="xMidYMid meet">
  <defs>
    <pattern id="rainbow" x="0" y="0" width="100%" height="100%" patternUnits="userSpaceOnUse">
      <rect x="0" y="0" width="60" height="6" fill="#ff0000"/>
      <rect x="0" y="6" width="60" height="6" fill="#ff7f00"/>
      <rect x="0" y="12" width="60" height="6" fill="#ffff00"/>
      <rect x="0" y="18" width="60" height="6" fill="#00ff00"/>
      <rect x="0" y="24" width="60" height="6" fill="#0000ff"/>
      <rect x="0" y="30" width="60" height="6" fill="#9400d3"/>
    </pattern>
  </defs>
  
  <!-- Pop-tart body -->
  <rect x="5" y="8" width="35" height="24" rx="3" fill="#ffb3d9" stroke="#ff69b4" stroke-width="1"/>
  
  <!-- Sprinkles -->
  <rect x="10" y="12" width="2" height="4" fill="#ff0000" transform="rotate(45 11 14)"/>
  <rect x="20" y="15" width="2" height="4" fill="#00ff00" transform="rotate(-30 21 17)"/>
  <rect x="15" y="22" width="2" height="4" fill="#0000ff" transform="rotate(60 16 24)"/>
  <rect x="25" y="20" width="2" height="4" fill="#ffff00" transform="rotate(-45 26 22)"/>
  <rect x="30" y="13" width="2" height="4" fill="#ff7f00" transform="rotate(30 31 15)"/>
  
  <!-- Cat head -->
  <ellipse cx="42" cy="20" rx="10" ry="8" fill="#999999" stroke="#666666" stroke-width="1"/>
  
  <!-- Ears -->
  <polygon points="35,15 38,10 40,15" fill="#999999" stroke="#666666" stroke-width="1"/>
  <polygon points="44,15 46,10 49,15" fill="#999999" stroke="#666666" stroke-width="1"/>
  
  <!-- Face -->
  <circle cx="38" cy="18" r="1" fill="#000000"/>
  <circle cx="46" cy="18" r="1" fill="#000000"/>
  <path d="M 40 22 Q 42 24 44 22" stroke="#000000" stroke-width="1" fill="none"/>
  
  <!-- Paws -->
  <ellipse cx="15" cy="35" rx="4" ry="3" fill="#999999"/>
  <ellipse cx="25" cy="35" rx="4" ry="3" fill="#999999"/>
  <ellipse cx="35" cy="35" rx="4" ry="3" fill="#999999"/>
  <ellipse cx="45" cy="35" rx="4" ry="3" fill="#999999"/>
  
  <!-- Tail -->
  <path d="M 5 20 Q 0 15 5 10" stroke="#999999" stroke-width="4" fill="none" stroke-linecap="round"/>
</svg>